<?xml version="1.0" encoding="UTF-8"?>
<svg xmlns="http://www.w3.org/2000/svg" width="3840" height="2160" viewBox="0 0 3840 2160" preserveAspectRatio="xMidYMid slice">
  <defs>
    <linearGradient id="bg-4k" x1="0" x2="1" y1="0" y2="1">
      <stop offset="0%" stop-color="#020304" />
      <stop offset="55%" stop-color="#07101a" />
      <stop offset="100%" stop-color="#02111a" />
    </linearGradient>

    <radialGradient id="moon-4k" cx="0.85" cy="0.12" r="0.28">
      <stop offset="0%" stop-color="#fffaf2" stop-opacity="0.98" />
      <stop offset="30%" stop-color="#e8f4ff" stop-opacity="0.9" />
      <stop offset="60%" stop-color="#cfe7ff" stop-opacity="0.35" />
      <stop offset="100%" stop-color="#07101a" stop-opacity="0" />
    </radialGradient>

    <radialGradient id="moon-spot" cx="0.82" cy="0.09" r="0.06">
      <stop offset="0%" stop-color="#fff6e8" stop-opacity="0.6" />
      <stop offset="100%" stop-color="#ffffff" stop-opacity="0" />
    </radialGradient>

    <radialGradient id="spotlight" cx="0.72" cy="0.22" r="0.6">
      <stop offset="0%" stop-color="#fffefc" stop-opacity="0.9" />
      <stop offset="20%" stop-color="#f2fbff" stop-opacity="0.7" />
      <stop offset="50%" stop-color="#d6edff" stop-opacity="0.35" />
      <stop offset="100%" stop-color="#07101a" stop-opacity="0" />
    </radialGradient>

    <radialGradient id="vignette" cx="0.35" cy="0.5" r="0.9">
      <stop offset="0%" stop-color="#000000" stop-opacity="0" />
      <stop offset="100%" stop-color="#000000" stop-opacity="0.6" />
    </radialGradient>

    <filter id="soft-blur" x="-20%" y="-20%" width="140%" height="140%">
      <feGaussianBlur stdDeviation="40" result="b" />
      <feComposite in="SourceGraphic" in2="b" operator="over" />
    </filter>
  </defs>

  <rect width="3840" height="2160" fill="url(#bg-4k)" />

  <g transform="translate(3000,80)">
    <circle cx="0" cy="0" r="900" fill="url(#moon-4k)" filter="url(#soft-blur)" />
    <ellipse cx="-220" cy="-120" rx="220" ry="140" fill="url(#moon-spot)" opacity="0.8" />
    <ellipse cx="140" cy="80" rx="160" ry="100" fill="#eaf6ff" opacity="0.2" />
  </g>

  <rect width="3840" height="2160" fill="url(#spotlight)" opacity="0.92" transform="translate(-760,120) scale(1.25)" />

  <path d="M1200 1600 C 1400 1200, 1900 1100, 2300 900 C 2600 760, 3000 600, 3400 520 L 3600 480 L 3000 480 C 2600 480, 2200 560, 1900 700 C 1700 800, 1500 930, 1200 1060 C 1000 1150, 900 1300, 1200 1600 Z" fill="#07111a" opacity="0.6" />

  <rect width="3840" height="2160" fill="url(#vignette)" />

</svg>
